<svg version="1.0" xmlns="http://www.w3.org/2000/svg" width="346.667" height="346.667" viewBox="0 0 260 260"><path d="M0 130v130h260V0H0v130zM72.1 14c.9 0 3.3 1.1 5.3 2.5l3.7 2.5h34.2c18.8 0 38.3.5 43.2 1.1 37.1 4.5 66.8 23.2 78.5 49.2 4 9 5.4 16 5.4 26.7-.1 15.6-4.9 28.8-15.2 41.6-13.4 16.6-37.9 29.1-65.7 33.4-3.8.6-7.7 1.7-8.5 2.5-2.2 2-8.5 4.5-11.2 4.5-8.4 0-15.8-5.7-15.8-11.9 0-5 2.8-8.5 8.5-10.7 5.5-2.1 12.7-1.3 16.9 1.8l2.9 2.1 10.1-2c31.3-6.3 53.9-24.3 60.1-47.8 1.9-7.6 1.9-20.4-.1-28-6.2-24.1-30.1-42.4-62.8-48-6.8-1.1-17.1-1.5-44.8-1.5-35.3 0-35.9 0-38.8 2.2-4.4 3.2-13.4 3.7-18.8.9-4.1-2.1-7.2-6.3-7.2-9.8 0-2.6 3.5-8 6.2-9.4 3.2-1.8 7.9-2.8 10.3-2.3 1.1.2 2.7.4 3.6.4zm73.5 53.4c16.7 4.4 26.4 16.2 25.1 30.6-.6 6.8-3.2 12.3-8.4 17.1-9.2 8.8-18.1 10.9-47 10.9H94V66h23.3c16.4 0 24.7.4 28.3 1.4zm-38.3 112.7c4.7 1.3 9.5 5.6 10.1 8.9.5 3.4-1.7 8.6-4.3 10-2 1-2.1 1.8-2.1 22.5V243H25l.2-21.8c.2-17.5.3-19.7.8-11.2.5 9.2.6 9.7.9 4 .3-5.3.5-5.9 1.1-3.5l.8 3 .1-3.3c0-1.7.6-3.2 1.2-3.2.5 0 .8.4.5.8-.2.4 0 1.4.5 2.2.7 1.2 1 1 1.5-.8s.9-2 1.5-1c.6.9.9.3.9-1.7 0-2.3.3-2.7 1-1.5.5.8 1 1.1 1 .6 0-.6.9 0 2.1 1.2 1.8 2 2 3.4 1.8 13l-.2 10.7 27.2.3 27.1.2v-29.3l-3.5-3.8c-6-6.7-3.8-14.3 5-17.4 4.9-1.7 6-1.8 10.8-.4zm-81.6 11.1c-.3.7-.5.2-.5-1.2s.2-1.9.5-1.3c.2.7.2 1.9 0 2.5z"/><path d="M111 95.9V113h12.9c15.2 0 21.3-1.5 26.2-6.6 2.8-2.9 3.3-4.3 3.7-9.2.5-7.3-1.3-11.2-7-15-4-2.6-4.7-2.7-20-3l-15.8-.4v17.1zM26.1 223.6c0 1.1.3 1.4.6.6.3-.7.2-1.6-.1-1.9-.3-.4-.6.2-.5 1.3z"/></svg>