<svg width="140" height="18" viewBox="0 0 140 18" fill="none" xmlns="http://www.w3.org/2000/svg">
<path d="M4.632 0.599999H0V17.352H2.52V12.84H4.632C6.288 12.84 7.848 12.24 8.976 11.064C10.128 9.888 10.776 8.376 10.776 6.744C10.776 5.088 10.128 3.528 8.976 2.4C7.848 1.248 6.288 0.599999 4.632 0.599999ZM4.632 10.32H2.52V3.096H4.632C6.624 3.096 8.28 4.752 8.28 6.744C8.28 8.736 6.624 10.32 4.632 10.32Z" fill="#050E1A"/>
<path d="M30.4326 8.976C30.4326 4.008 26.4006 0 21.4566 0C16.4886 0 12.4806 4.008 12.4806 8.976C12.4806 13.92 16.4886 17.952 21.4566 17.952C26.4006 17.952 30.4326 13.92 30.4326 8.976ZM15.0006 8.976C15.0006 7.248 15.6726 5.616 16.8966 4.416C18.1206 3.192 19.7286 2.52 21.4566 2.52C23.1846 2.52 24.7926 3.192 26.0166 4.416C27.2406 5.616 27.8886 7.248 27.8886 8.976C27.8886 10.68 27.2406 12.312 26.0166 13.512C24.7926 14.736 23.1846 15.408 21.4566 15.408C19.7286 15.408 18.1206 14.736 16.8966 13.512C15.6726 12.312 15.0006 10.68 15.0006 8.976Z" fill="#050E1A"/>
<path d="M35.0844 17.4V12.864H36.5724L40.2204 17.4H43.4844L39.4524 12.432C40.2204 12.12 40.9404 11.688 41.5404 11.088C42.7164 9.912 43.3404 8.376 43.3404 6.72C43.3404 5.112 42.7164 3.528 41.5404 2.4C40.3404 1.272 38.8524 0.599999 37.1964 0.599999H32.5644V17.4H35.0844ZM35.0844 3.12H37.1964C39.1884 3.12 40.8444 4.704 40.8444 6.72C40.8444 8.712 39.1884 10.344 37.1964 10.344H35.0844V3.12Z" fill="#050E1A"/>
<path d="M63.1269 8.976C63.1269 4.008 59.0949 0 54.1509 0C49.1829 0 45.1749 4.008 45.1749 8.976C45.1749 13.92 49.1829 17.952 54.1509 17.952C59.0949 17.952 63.1269 13.92 63.1269 8.976ZM47.6949 8.976C47.6949 7.248 48.3669 5.616 49.5909 4.416C50.8149 3.192 52.4229 2.52 54.1509 2.52C55.8789 2.52 57.4869 3.192 58.7109 4.416C59.9349 5.616 60.5829 7.248 60.5829 8.976C60.5829 10.68 59.9349 12.312 58.7109 13.512C57.4869 14.736 55.8789 15.408 54.1509 15.408C52.4229 15.408 50.8149 14.736 49.5909 13.512C48.3669 12.312 47.6949 10.68 47.6949 8.976Z" fill="#050E1A"/>
<path d="M67.7788 15.048V0.599999H65.2588V17.4H73.4908V15.048H67.7788Z" fill="#050E1A"/>
<path d="M91.4619 8.976C91.4619 4.008 87.4299 0 82.4859 0C77.5179 0 73.5099 4.008 73.5099 8.976C73.5099 13.92 77.5179 17.952 82.4859 17.952C87.4299 17.952 91.4619 13.92 91.4619 8.976ZM76.0299 8.976C76.0299 7.248 76.7019 5.616 77.9259 4.416C79.1499 3.192 80.7579 2.52 82.4859 2.52C84.2139 2.52 85.8219 3.192 87.0459 4.416C88.2699 5.616 88.9179 7.248 88.9179 8.976C88.9179 10.68 88.2699 12.312 87.0459 13.512C85.8219 14.736 84.2139 15.408 82.4859 15.408C80.7579 15.408 79.1499 14.736 77.9259 13.512C76.7019 12.312 76.0299 10.68 76.0299 8.976Z" fill="#050E1A"/>
<path d="M99.6774 17.4H106.373V0.599999H103.805L103.829 15.168H102.005L100.349 0.599999H93.6534V17.4H96.2934V2.856H98.0934L99.6774 17.4Z" fill="#050E1A"/>
<path d="M125.78 12.528L123.068 12.312C122.804 12.744 122.467 13.152 122.107 13.536C120.883 14.76 119.275 15.432 117.548 15.432C115.82 15.432 114.212 14.76 112.988 13.536C111.979 12.528 111.331 11.232 111.163 9.816H126.476C126.5 9.552 126.523 9.264 126.523 8.976C126.523 4.008 122.516 0 117.548 0C112.579 0 108.572 4.008 108.572 8.976C108.572 13.944 112.579 17.952 117.548 17.952C121.243 17.952 124.411 15.72 125.78 12.528ZM117.548 2.52C119.275 2.52 120.883 3.192 122.107 4.416C122.924 5.232 123.499 6.264 123.787 7.344H111.308C111.596 6.264 112.172 5.232 112.988 4.416C114.212 3.192 115.82 2.52 117.548 2.52Z" fill="#050E1A"/>
<path d="M131.175 17.4V12.864H132.663L136.311 17.4H139.575L135.543 12.432C136.311 12.12 137.031 11.688 137.631 11.088C138.807 9.912 139.431 8.376 139.431 6.72C139.431 5.112 138.807 3.528 137.631 2.4C136.431 1.272 134.943 0.599999 133.287 0.599999H128.655V17.4H131.175ZM131.175 3.12H133.287C135.279 3.12 136.935 4.704 136.935 6.72C136.935 8.712 135.279 10.344 133.287 10.344H131.175V3.12Z" fill="#050E1A"/>
<path d="M25.7351 8.93632C25.7351 11.3023 23.8171 13.2203 21.4511 13.2203C19.0851 13.2203 17.1671 11.3023 17.1671 8.93632C17.1671 6.57034 19.0851 4.65234 21.4511 4.65234C23.8171 4.65234 25.7351 6.57034 25.7351 8.93632Z" fill="#FFBB00"/>
<path d="M58.4465 8.93632C58.4465 11.3023 56.5285 13.2203 54.1625 13.2203C51.7965 13.2203 49.8785 11.3023 49.8785 8.93632C49.8785 6.57034 51.7965 4.65234 54.1625 4.65234C56.5285 4.65234 58.4465 6.57034 58.4465 8.93632Z" fill="#326FEE"/>
<path d="M86.8136 8.93632C86.8136 11.3023 84.8956 13.2203 82.5296 13.2203C80.1636 13.2203 78.2456 11.3023 78.2456 8.93632C78.2456 6.57034 80.1636 4.65234 82.5296 4.65234C84.8956 4.65234 86.8136 6.57034 86.8136 8.93632Z" fill="#C42339"/>
</svg>
